<svg xmlns="http://www.w3.org/2000/svg" xmlns:xlink="http://www.w3.org/1999/xlink" width="500" zoomAndPan="magnify" viewBox="0 0 375 374.999991" height="500" preserveAspectRatio="xMidYMid meet" version="1.0"><defs><clipPath id="30451d2621"><path d="M 8.527344 92 L 198 92 L 198 293 L 8.527344 293 Z M 8.527344 92 " clip-rule="nonzero"/></clipPath><clipPath id="4bfee9b038"><path d="M 196 11.898438 L 354 11.898438 L 354 241 L 196 241 Z M 196 11.898438 " clip-rule="nonzero"/></clipPath><clipPath id="587ed32685"><path d="M 134 300 L 208 300 L 208 362.898438 L 134 362.898438 Z M 134 300 " clip-rule="nonzero"/></clipPath></defs><g clip-path="url(#30451d2621)"><path fill="#8c52ff" d="M 195.570312 261.445312 C 165.652344 234.835938 123.15625 202.746094 80.351562 189.613281 C 70.679688 186.660156 141.148438 226.957031 184.019531 287.847656 C 27.34375 327.613281 8.910156 92.648438 8.910156 92.648438 C 8.910156 92.648438 220.480469 125.683594 195.570312 261.445312 " fill-opacity="1" fill-rule="nonzero"/></g><g clip-path="url(#4bfee9b038)"><path fill="#8c52ff" d="M 205.191406 217.09375 C 228.636719 184.640625 263.179688 144.113281 302.125 122.023438 C 310.925781 117.050781 250.851562 171.644531 222.183594 240.371094 C 383.75 245.273438 350.878906 11.894531 350.878906 11.894531 C 350.878906 11.894531 151.476562 89.949219 205.191406 217.09375 " fill-opacity="1" fill-rule="nonzero"/></g><path fill="#8c52ff" d="M 213.222656 255.679688 C 229.089844 267.144531 248.90625 284.035156 259.710938 303.078125 C 262.140625 307.378906 235.445312 278.007812 201.84375 263.988281 C 199.445312 342.984375 313.554688 326.914062 313.554688 326.914062 C 313.554688 326.914062 275.390625 229.417969 213.222656 255.679688 " fill-opacity="1" fill-rule="nonzero"/><g clip-path="url(#587ed32685)"><path fill="#8c52ff" d="M 197.226562 302.167969 C 187.367188 311.949219 175.335938 325.957031 169.855469 340.484375 C 168.621094 343.769531 184.101562 320.253906 206.117188 306.746094 C 216.464844 361.84375 134.734375 363.101562 134.734375 363.101562 C 134.734375 363.101562 150.777344 290.589844 197.226562 302.167969 " fill-opacity="1" fill-rule="nonzero"/></g></svg>