<svg xmlns="http://www.w3.org/2000/svg" xmlns:xlink="http://www.w3.org/1999/xlink" width="500" zoomAndPan="magnify" viewBox="0 0 375 374.999991" height="500" preserveAspectRatio="xMidYMid meet" version="1.0"><defs><g/><clipPath id="e7e848c495"><path d="M 17.25 0 L 357.75 0 C 362.324219 0 366.710938 1.816406 369.949219 5.050781 C 373.183594 8.289062 375 12.675781 375 17.25 L 375 357.75 C 375 362.324219 373.183594 366.710938 369.949219 369.949219 C 366.710938 373.183594 362.324219 375 357.75 375 L 17.25 375 C 12.675781 375 8.289062 373.183594 5.050781 369.949219 C 1.816406 366.710938 0 362.324219 0 357.75 L 0 17.25 C 0 12.675781 1.816406 8.289062 5.050781 5.050781 C 8.289062 1.816406 12.675781 0 17.25 0 Z M 17.25 0 " clip-rule="nonzero"/></clipPath></defs><g clip-path="url(#e7e848c495)"><rect x="-37.5" width="450" fill="#4aadaa" y="-37.499999" height="449.999989" fill-opacity="1"/></g><g fill="#ffffff" fill-opacity="1"><g transform="translate(68.20259, 296.249981)"><g><path d="M 56.5625 0 L 7.140625 0 L 82.453125 -218.1875 L 141.90625 -218.1875 L 217.109375 0 L 167.6875 0 L 151.484375 -49.75 L 72.765625 -49.75 Z M 84.484375 -85.765625 L 139.875 -85.765625 L 113.03125 -168.328125 L 111.328125 -168.328125 Z M 84.484375 -85.765625 "/></g></g></g></svg>